<svg xmlns="http://www.w3.org/2000/svg" xmlns:xlink="http://www.w3.org/1999/xlink" width="1080" zoomAndPan="magnify" viewBox="0 0 810 809.999993" height="1080" preserveAspectRatio="xMidYMid meet" version="1.0"><defs><clipPath id="422c78e87e"><path d="M 12.382812 45.265625 L 797.632812 45.265625 L 797.632812 764.515625 L 12.382812 764.515625 Z M 12.382812 45.265625 " clip-rule="nonzero"/></clipPath></defs><g clip-path="url(#422c78e87e)"><path fill="#000000" d="M 737.09375 44.753906 C 726.460938 45.222656 716.558594 48.320312 707.839844 51.84375 C 699.671875 55.128906 668.460938 68.507812 619.308594 89.582031 C 570.109375 110.671875 504.96875 138.628906 435.476562 168.503906 C 296.496094 228.25 140.246094 295.503906 60.214844 329.925781 C 57.203125 331.21875 46.703125 334.574219 35.558594 343.273438 C 24.414062 351.96875 12.5625 369.992188 12.5625 390.078125 C 12.5625 406.269531 20.285156 422.359375 30 431.964844 C 39.71875 441.570312 50 446.316406 58.808594 449.90625 C 90.765625 462.941406 189.878906 503.488281 208.59375 511.144531 C 215.179688 531.316406 251.054688 641.019531 259.375 667.90625 C 264.859375 685.648438 270.078125 696.757812 276.875 705.578125 C 280.273438 709.988281 284.226562 713.851562 289.011719 716.878906 C 290.925781 718.089844 293.023438 719.023438 295.144531 719.882812 L 295.273438 719.945312 C 295.761719 720.140625 296.183594 720.476562 296.679688 720.648438 C 297.613281 720.976562 298.238281 721.015625 299.488281 721.285156 C 304.46875 722.894531 309.5 723.90625 313.988281 723.90625 C 333.125 723.90625 344.839844 713.367188 344.839844 713.367188 L 345.542969 712.859375 L 443.972656 627.742188 L 563.355469 740.632812 C 565.035156 743.011719 580.710938 764.515625 615.285156 764.515625 C 635.8125 764.515625 652.097656 754.21875 662.550781 743.253906 C 673.003906 732.285156 679.519531 720.765625 682.289062 706.28125 L 682.289062 706.21875 C 684.878906 692.53125 794.898438 127.890625 794.898438 127.890625 L 794.707031 128.660156 C 797.929688 113.960938 798.773438 100.277344 795.21875 86.769531 C 791.664062 73.265625 782.300781 60.332031 770.691406 53.375 C 759.082031 46.417969 747.722656 44.285156 737.09375 44.753906 Z M 730.960938 113.078125 C 730.804688 114.03125 731.078125 113.554688 730.832031 114.675781 L 730.769531 115.058594 L 730.703125 115.441406 C 730.703125 115.441406 622.046875 672.855469 618.03125 694.085938 C 618.324219 692.480469 616.980469 695.667969 615.601562 697.597656 C 613.65625 696.253906 609.664062 694.53125 609.664062 694.53125 L 609.023438 693.828125 L 445.953125 539.621094 L 330.660156 639.234375 L 364.960938 501.949219 C 364.960938 501.949219 579.371094 280.070312 592.289062 267.15625 C 602.6875 256.828125 604.871094 253.226562 604.871094 249.660156 C 604.871094 244.890625 602.382812 241.425781 596.824219 241.425781 C 591.820312 241.425781 585.089844 246.289062 581.496094 248.578125 C 534.625 278.441406 328.867188 398.324219 236.636719 451.949219 C 221.976562 445.953125 120.148438 404.285156 85.636719 390.203125 C 85.898438 390.089844 85.8125 390.128906 86.082031 390.011719 C 166.136719 355.582031 322.320312 288.328125 461.28125 228.589844 C 530.761719 198.722656 595.957031 170.742188 645.113281 149.667969 C 693.515625 128.917969 727.144531 114.636719 730.960938 113.078125 Z M 730.960938 113.078125 " fill-opacity="1" fill-rule="nonzero"/></g></svg>