<svg xmlns="http://www.w3.org/2000/svg" xmlns:xlink="http://www.w3.org/1999/xlink" width="1080" zoomAndPan="magnify" viewBox="0 0 810 809.999993" height="1080" preserveAspectRatio="xMidYMid meet" version="1.0"><defs><clipPath id="f93994bf2c"><path d="M 132.546875 0 L 677.238281 0 L 677.238281 810 L 132.546875 810 Z M 132.546875 0 " clip-rule="nonzero"/></clipPath></defs><g clip-path="url(#f93994bf2c)"><path fill="#040606" d="M 404.890625 398.242188 C 335.257812 398.242188 278.863281 341.789062 278.863281 272.253906 C 278.863281 202.644531 335.257812 146.265625 404.890625 146.265625 C 474.453125 146.265625 530.921875 202.644531 530.921875 272.253906 C 530.921875 341.789062 474.453125 398.242188 404.890625 398.242188 Z M 404.890625 0 C 254.476562 0 132.546875 121.886719 132.546875 272.253906 C 132.546875 401.980469 203.402344 501.648438 397.554688 805.253906 C 401.582031 811.582031 408.203125 811.582031 412.230469 805.253906 C 606.382812 501.648438 677.238281 401.980469 677.238281 272.253906 C 677.238281 121.886719 555.308594 0 404.890625 0 " fill-opacity="1" fill-rule="nonzero"/></g></svg>