<svg xmlns="http://www.w3.org/2000/svg" xmlns:xlink="http://www.w3.org/1999/xlink" width="1080" zoomAndPan="magnify" viewBox="0 0 810 809.999993" height="1080" preserveAspectRatio="xMidYMid meet" version="1.0"><defs><clipPath id="931d79a7aa"><path d="M 0 9.378906 L 810 9.378906 L 810 809.628906 L 0 809.628906 Z M 0 9.378906 " clip-rule="nonzero"/></clipPath></defs><g clip-path="url(#931d79a7aa)"><path fill="#000000" d="M 408.90625 -213.589844 C 398.566406 -213.589844 388.230469 -213.335938 377.902344 -212.828125 C 367.574219 -212.320312 357.261719 -211.558594 346.972656 -210.546875 C 336.679688 -209.53125 326.421875 -208.265625 316.191406 -206.75 C 305.960938 -205.230469 295.777344 -203.464844 285.632812 -201.445312 C 275.492188 -199.429688 265.40625 -197.164062 255.375 -194.652344 C 245.34375 -192.140625 235.378906 -189.382812 225.484375 -186.378906 C 215.585938 -183.378906 205.769531 -180.136719 196.035156 -176.652344 C 186.296875 -173.167969 176.652344 -169.445312 167.097656 -165.488281 C 157.542969 -161.53125 148.09375 -157.34375 138.746094 -152.921875 C 129.398438 -148.5 120.164062 -143.851562 111.042969 -138.976562 C 101.921875 -134.101562 92.929688 -129.007812 84.058594 -123.691406 C 75.1875 -118.375 66.453125 -112.84375 57.855469 -107.097656 C 49.257812 -101.351562 40.804688 -95.398438 32.5 -89.238281 C 24.191406 -83.078125 16.042969 -76.71875 8.050781 -70.160156 C 0.0546875 -63.597656 -7.773438 -56.847656 -15.433594 -49.902344 C -23.097656 -42.957031 -30.585938 -35.828125 -37.898438 -28.515625 C -45.207031 -21.203125 -52.335938 -13.714844 -59.28125 -6.054688 C -66.226562 1.609375 -72.980469 9.4375 -79.539062 17.429688 C -86.101562 25.421875 -92.460938 33.574219 -98.621094 41.878906 C -104.78125 50.183594 -110.734375 58.636719 -116.476562 67.234375 C -122.222656 75.835938 -127.753906 84.566406 -133.070312 93.4375 C -138.386719 102.308594 -143.484375 111.304688 -148.355469 120.421875 C -153.230469 129.542969 -157.878906 138.777344 -162.300781 148.125 C -166.722656 157.472656 -170.914062 166.925781 -174.871094 176.480469 C -178.828125 186.03125 -182.546875 195.679688 -186.03125 205.414062 C -189.515625 215.152344 -192.757812 224.96875 -195.761719 234.863281 C -198.761719 244.757812 -201.519531 254.722656 -204.03125 264.753906 C -206.542969 274.785156 -208.808594 284.871094 -210.828125 295.015625 C -212.84375 305.15625 -214.613281 315.34375 -216.128906 325.570312 C -217.648438 335.800781 -218.914062 346.0625 -219.925781 356.351562 C -220.9375 366.644531 -221.699219 376.953125 -222.207031 387.28125 C -222.714844 397.609375 -222.96875 407.945312 -222.96875 418.285156 C -222.96875 428.628906 -222.714844 438.960938 -222.207031 449.292969 C -221.699219 459.621094 -220.9375 469.929688 -219.925781 480.222656 C -218.914062 490.511719 -217.648438 500.773438 -216.128906 511.003906 C -214.613281 521.230469 -212.84375 531.417969 -210.828125 541.558594 C -208.808594 551.703125 -206.542969 561.789062 -204.03125 571.820312 C -201.519531 581.851562 -198.761719 591.8125 -195.761719 601.710938 C -192.757812 611.605469 -189.515625 621.421875 -186.03125 631.160156 C -182.546875 640.894531 -178.828125 650.539062 -174.871094 660.09375 C -170.914062 669.648438 -166.722656 679.101562 -162.300781 688.449219 C -157.878906 697.796875 -153.230469 707.03125 -148.355469 716.152344 C -143.484375 725.269531 -138.386719 734.265625 -133.070312 743.136719 C -127.753906 752.003906 -122.222656 760.738281 -116.476562 769.335938 C -110.734375 777.9375 -104.78125 786.386719 -98.621094 794.695312 C -92.460938 803 -86.101562 811.148438 -79.539062 819.144531 C -72.980469 827.136719 -66.226562 834.964844 -59.28125 842.628906 C -52.335938 850.289062 -45.207031 857.777344 -37.898438 865.089844 C -30.585938 872.402344 -23.097656 879.53125 -15.433594 886.476562 C -7.773438 893.417969 0.0546875 900.171875 8.050781 906.734375 C 16.042969 913.292969 24.191406 919.652344 32.5 925.8125 C 40.804688 931.972656 49.257812 937.925781 57.855469 943.671875 C 66.453125 949.417969 75.1875 954.949219 84.058594 960.265625 C 92.925781 965.582031 101.921875 970.675781 111.042969 975.550781 C 120.164062 980.425781 129.398438 985.074219 138.746094 989.496094 C 148.09375 993.917969 157.542969 998.105469 167.097656 1002.0625 C 176.652344 1006.019531 186.296875 1009.742188 196.035156 1013.226562 C 205.769531 1016.707031 215.585938 1019.953125 225.484375 1022.953125 C 235.378906 1025.957031 245.34375 1028.710938 255.375 1031.226562 C 265.40625 1033.738281 275.492188 1036.003906 285.632812 1038.019531 C 295.777344 1040.039062 305.960938 1041.804688 316.191406 1043.324219 C 326.421875 1044.839844 336.679688 1046.105469 346.972656 1047.121094 C 357.261719 1048.132812 367.574219 1048.894531 377.902344 1049.402344 C 388.230469 1049.90625 398.566406 1050.160156 408.90625 1050.160156 C 419.246094 1050.160156 429.582031 1049.90625 439.910156 1049.402344 C 450.238281 1048.894531 460.550781 1048.132812 470.839844 1047.121094 C 481.132812 1046.105469 491.394531 1044.839844 501.621094 1043.324219 C 511.851562 1041.804688 522.035156 1040.039062 532.179688 1038.019531 C 542.320312 1036.003906 552.410156 1033.738281 562.441406 1031.226562 C 572.472656 1028.710938 582.433594 1025.957031 592.332031 1022.953125 C 602.226562 1019.953125 612.042969 1016.707031 621.777344 1013.226562 C 631.515625 1009.742188 641.160156 1006.019531 650.714844 1002.0625 C 660.269531 998.105469 669.71875 993.917969 679.066406 989.496094 C 688.417969 985.074219 697.648438 980.425781 706.769531 975.550781 C 715.890625 970.675781 724.886719 965.582031 733.753906 960.265625 C 742.625 954.949219 751.359375 949.417969 759.957031 943.671875 C 768.554688 937.925781 777.007812 931.972656 785.3125 925.8125 C 793.621094 919.652344 801.769531 913.292969 809.765625 906.734375 C 817.757812 900.171875 825.585938 893.417969 833.246094 886.476562 C 840.910156 879.53125 848.398438 872.402344 855.710938 865.089844 C 863.023438 857.777344 870.148438 850.289062 877.09375 842.628906 C 884.039062 834.964844 890.792969 827.136719 897.351562 819.144531 C 903.914062 811.148438 910.273438 803 916.433594 794.695312 C 922.59375 786.386719 928.546875 777.9375 934.292969 769.335938 C 940.035156 760.738281 945.566406 752.003906 950.882812 743.136719 C 956.199219 734.265625 961.296875 725.269531 966.171875 716.152344 C 971.046875 707.03125 975.691406 697.796875 980.113281 688.449219 C 984.535156 679.101562 988.726562 669.648438 992.683594 660.09375 C 996.640625 650.539062 1000.359375 640.894531 1003.84375 631.160156 C 1007.328125 621.421875 1010.570312 611.605469 1013.574219 601.710938 C 1016.574219 591.8125 1019.332031 581.851562 1021.84375 571.820312 C 1024.359375 561.789062 1026.621094 551.703125 1028.640625 541.558594 C 1030.65625 531.417969 1032.425781 521.230469 1033.941406 511.003906 C 1035.460938 500.773438 1036.726562 490.511719 1037.738281 480.222656 C 1038.753906 469.929688 1039.511719 459.621094 1040.019531 449.292969 C 1040.527344 438.960938 1040.78125 428.628906 1040.78125 418.285156 C 1040.777344 407.945312 1040.519531 397.613281 1040.007812 387.285156 C 1039.496094 376.960938 1038.730469 366.652344 1037.710938 356.363281 C 1036.695312 346.070312 1035.425781 335.8125 1033.902344 325.585938 C 1032.382812 315.359375 1030.609375 305.175781 1028.589844 295.035156 C 1026.570312 284.894531 1024.300781 274.808594 1021.785156 264.78125 C 1019.269531 254.753906 1016.507812 244.789062 1013.503906 234.898438 C 1010.5 225.003906 1007.253906 215.191406 1003.769531 205.457031 C 1000.285156 195.722656 996.5625 186.078125 992.601562 176.527344 C 988.640625 166.972656 984.453125 157.527344 980.027344 148.179688 C 975.605469 138.832031 970.957031 129.601562 966.082031 120.484375 C 961.203125 111.367188 956.109375 102.371094 950.792969 93.503906 C 945.476562 84.636719 939.941406 75.90625 934.199219 67.308594 C 928.453125 58.710938 922.5 50.261719 916.339844 41.957031 C 910.179688 33.652344 903.820312 25.503906 897.257812 17.511719 C 890.699219 9.519531 883.949219 1.691406 877.003906 -5.96875 C 870.058594 -13.628906 862.933594 -21.117188 855.621094 -28.425781 C 848.308594 -35.738281 840.824219 -42.867188 833.160156 -49.808594 C 825.5 -56.753906 817.675781 -63.507812 809.683594 -70.066406 C 801.691406 -76.625 793.542969 -82.984375 785.238281 -89.144531 C 776.933594 -95.304688 768.480469 -101.257812 759.886719 -107.003906 C 751.289062 -112.75 742.558594 -118.28125 733.6875 -123.597656 C 724.820312 -128.914062 715.828125 -134.011719 706.710938 -138.886719 C 697.59375 -143.761719 688.359375 -148.414062 679.015625 -152.835938 C 669.667969 -157.257812 660.21875 -161.449219 650.667969 -165.40625 C 641.117188 -169.367188 631.472656 -173.089844 621.738281 -176.574219 C 612.003906 -180.0625 602.191406 -183.308594 592.296875 -186.3125 C 582.402344 -189.316406 572.441406 -192.074219 562.414062 -194.589844 C 552.382812 -197.105469 542.296875 -199.375 532.15625 -201.394531 C 522.019531 -203.417969 511.835938 -205.1875 501.605469 -206.710938 C 491.378906 -208.230469 481.121094 -209.5 470.832031 -210.519531 C 460.542969 -211.535156 450.234375 -212.300781 439.90625 -212.8125 C 429.578125 -213.324219 419.246094 -213.582031 408.90625 -213.589844 Z M 408.90625 1006.585938 C 399.277344 1006.585938 389.65625 1006.347656 380.039062 1005.875 C 370.425781 1005.402344 360.824219 1004.695312 351.242188 1003.75 C 341.660156 1002.808594 332.109375 1001.628906 322.585938 1000.214844 C 313.0625 998.804688 303.578125 997.160156 294.136719 995.28125 C 284.691406 993.402344 275.300781 991.292969 265.960938 988.953125 C 256.621094 986.613281 247.347656 984.046875 238.132812 981.253906 C 228.917969 978.457031 219.78125 975.4375 210.714844 972.195312 C 201.648438 968.949219 192.671875 965.488281 183.773438 961.800781 C 174.878906 958.117188 166.082031 954.21875 157.378906 950.101562 C 148.671875 945.984375 140.078125 941.65625 131.585938 937.117188 C 123.09375 932.578125 114.71875 927.835938 106.460938 922.886719 C 98.203125 917.9375 90.070312 912.785156 82.066406 907.4375 C 74.0625 902.089844 66.191406 896.546875 58.457031 890.8125 C 50.726562 885.078125 43.136719 879.15625 35.695312 873.046875 C 28.253906 866.9375 20.964844 860.652344 13.832031 854.1875 C 6.695312 847.71875 -0.273438 841.082031 -7.082031 834.277344 C -13.890625 827.46875 -20.527344 820.496094 -26.992188 813.363281 C -33.457031 806.230469 -39.746094 798.941406 -45.851562 791.5 C -51.960938 784.054688 -57.882812 776.46875 -63.617188 768.734375 C -69.355469 761 -74.894531 753.132812 -80.246094 745.128906 C -85.59375 737.121094 -90.742188 728.988281 -95.691406 720.730469 C -100.644531 712.472656 -105.386719 704.097656 -109.925781 695.609375 C -114.464844 687.117188 -118.792969 678.519531 -122.90625 669.816406 C -127.023438 661.113281 -130.925781 652.3125 -134.609375 643.417969 C -138.292969 634.523438 -141.757812 625.542969 -145 616.476562 C -148.246094 607.414062 -151.265625 598.273438 -154.058594 589.058594 C -156.855469 579.847656 -159.421875 570.570312 -161.761719 561.230469 C -164.097656 551.890625 -166.207031 542.5 -168.085938 533.058594 C -169.964844 523.613281 -171.609375 514.132812 -173.023438 504.609375 C -174.4375 495.085938 -175.613281 485.53125 -176.558594 475.949219 C -177.5 466.367188 -178.210938 456.769531 -178.683594 447.152344 C -179.15625 437.535156 -179.390625 427.914062 -179.390625 418.285156 C -179.390625 408.660156 -179.15625 399.035156 -178.683594 389.421875 C -178.210938 379.804688 -177.5 370.207031 -176.558594 360.625 C -175.613281 351.042969 -174.4375 341.488281 -173.023438 331.964844 C -171.609375 322.441406 -169.964844 312.957031 -168.085938 303.515625 C -166.207031 294.074219 -164.097656 284.679688 -161.761719 275.34375 C -159.421875 266.003906 -156.855469 256.726562 -154.058594 247.511719 C -151.265625 238.300781 -148.246094 229.160156 -145 220.09375 C -141.757812 211.03125 -138.292969 202.050781 -134.609375 193.15625 C -130.925781 184.261719 -127.023438 175.460938 -122.90625 166.757812 C -118.792969 158.054688 -114.464844 149.457031 -109.925781 140.964844 C -105.386719 132.472656 -100.644531 124.097656 -95.691406 115.839844 C -90.742188 107.582031 -85.59375 99.453125 -80.246094 91.445312 C -74.894531 83.441406 -69.355469 75.570312 -63.617188 67.839844 C -57.882812 60.105469 -51.960938 52.515625 -45.851562 45.074219 C -39.746094 37.632812 -33.457031 30.34375 -26.992188 23.210938 C -20.527344 16.078125 -13.890625 9.105469 -7.082031 2.296875 C -0.273438 -4.511719 6.695312 -11.148438 13.832031 -17.613281 C 20.964844 -24.078125 28.253906 -30.367188 35.695312 -36.472656 C 43.136719 -42.582031 50.726562 -48.503906 58.457031 -54.238281 C 66.191406 -59.972656 74.0625 -65.515625 82.066406 -70.863281 C 90.070312 -76.214844 98.203125 -81.363281 106.460938 -86.3125 C 114.71875 -91.261719 123.09375 -96.007812 131.585938 -100.546875 C 140.078125 -105.082031 148.671875 -109.410156 157.378906 -113.527344 C 166.082031 -117.644531 174.878906 -121.542969 183.773438 -125.230469 C 192.671875 -128.914062 201.648438 -132.378906 210.714844 -135.621094 C 219.78125 -138.863281 228.917969 -141.882812 238.132812 -144.679688 C 247.347656 -147.472656 256.621094 -150.039062 265.960938 -152.378906 C 275.300781 -154.71875 284.691406 -156.828125 294.136719 -158.707031 C 303.578125 -160.585938 313.0625 -162.230469 322.585938 -163.644531 C 332.109375 -165.054688 341.660156 -166.234375 351.242188 -167.179688 C 360.824219 -168.121094 370.425781 -168.828125 380.039062 -169.300781 C 389.65625 -169.773438 399.277344 -170.011719 408.90625 -170.011719 C 418.535156 -170.011719 428.15625 -169.773438 437.773438 -169.300781 C 447.390625 -168.828125 456.988281 -168.121094 466.570312 -167.179688 C 476.152344 -166.234375 485.703125 -165.054688 495.226562 -163.644531 C 504.75 -162.230469 514.234375 -160.585938 523.675781 -158.707031 C 533.121094 -156.828125 542.511719 -154.71875 551.851562 -152.378906 C 561.191406 -150.039062 570.46875 -147.472656 579.679688 -144.679688 C 588.894531 -141.882812 598.03125 -138.863281 607.097656 -135.621094 C 616.164062 -132.378906 625.144531 -128.914062 634.039062 -125.230469 C 642.933594 -121.542969 651.734375 -117.644531 660.4375 -113.527344 C 669.140625 -109.410156 677.738281 -105.082031 686.226562 -100.546875 C 694.71875 -96.007812 703.09375 -91.261719 711.351562 -86.3125 C 719.609375 -81.363281 727.742188 -76.214844 735.746094 -70.863281 C 743.753906 -65.515625 751.621094 -59.972656 759.355469 -54.238281 C 767.089844 -48.503906 774.675781 -42.582031 782.117188 -36.472656 C 789.5625 -30.367188 796.847656 -24.078125 803.984375 -17.613281 C 811.117188 -11.148438 818.085938 -4.511719 824.894531 2.296875 C 831.703125 9.105469 838.339844 16.078125 844.804688 23.210938 C 851.273438 30.34375 857.558594 37.632812 863.667969 45.074219 C 869.773438 52.515625 875.695312 60.105469 881.429688 67.839844 C 887.167969 75.570312 892.707031 83.441406 898.058594 91.445312 C 903.40625 99.453125 908.554688 107.582031 913.507812 115.839844 C 918.457031 124.097656 923.199219 132.472656 927.738281 140.964844 C 932.277344 149.457031 936.605469 158.054688 940.722656 166.757812 C 944.835938 175.460938 948.738281 184.261719 952.421875 193.15625 C 956.105469 202.050781 959.570312 211.03125 962.8125 220.09375 C 966.058594 229.160156 969.078125 238.300781 971.871094 247.511719 C 974.667969 256.726562 977.234375 266.003906 979.574219 275.34375 C 981.914062 284.679688 984.023438 294.074219 985.898438 303.515625 C 987.777344 312.957031 989.421875 322.441406 990.835938 331.964844 C 992.25 341.488281 993.425781 351.042969 994.371094 360.625 C 995.316406 370.207031 996.023438 379.804688 996.496094 389.421875 C 996.96875 399.035156 997.203125 408.660156 997.203125 418.285156 C 997.199219 427.914062 996.960938 437.535156 996.484375 447.148438 C 996.007812 456.765625 995.296875 466.363281 994.347656 475.941406 C 993.398438 485.523438 992.21875 495.074219 990.800781 504.59375 C 989.386719 514.117188 987.738281 523.597656 985.855469 533.039062 C 983.976562 542.480469 981.863281 551.871094 979.523438 561.207031 C 977.179688 570.546875 974.609375 579.820312 971.8125 589.03125 C 969.015625 598.242188 965.996094 607.378906 962.75 616.441406 C 959.503906 625.507812 956.039062 634.484375 952.351562 643.378906 C 948.667969 652.269531 944.765625 661.070312 940.648438 669.769531 C 936.53125 678.472656 932.199219 687.066406 927.660156 695.554688 C 923.121094 704.046875 918.378906 712.417969 913.425781 720.675781 C 908.476562 728.933594 903.328125 737.0625 897.976562 745.066406 C 892.628906 753.070312 887.085938 760.9375 881.351562 768.667969 C 875.617188 776.402344 869.695312 783.988281 863.585938 791.429688 C 857.480469 798.871094 851.191406 806.15625 844.726562 813.289062 C 838.261719 820.421875 831.625 827.390625 824.820312 834.199219 C 818.011719 841.007812 811.042969 847.644531 803.910156 854.109375 C 796.777344 860.574219 789.488281 866.859375 782.046875 872.964844 C 774.605469 879.074219 767.019531 884.996094 759.289062 890.730469 C 751.558594 896.464844 743.6875 902.007812 735.683594 907.359375 C 727.679688 912.707031 719.550781 917.855469 711.292969 922.808594 C 703.039062 927.757812 694.664062 932.503906 686.175781 937.042969 C 677.6875 941.582031 669.089844 945.910156 660.390625 950.027344 C 651.6875 954.144531 642.890625 958.046875 633.996094 961.734375 C 625.105469 965.417969 616.125 968.882812 607.0625 972.128906 C 598 975.375 588.863281 978.398438 579.652344 981.195312 C 570.441406 983.992188 561.164062 986.558594 551.828125 988.902344 C 542.488281 991.246094 533.101562 993.355469 523.660156 995.238281 C 514.21875 997.117188 504.738281 998.765625 495.214844 1000.183594 C 485.691406 1001.597656 476.140625 1002.78125 466.5625 1003.726562 C 456.980469 1004.675781 447.382812 1005.386719 437.769531 1005.863281 C 428.15625 1006.339844 418.535156 1006.578125 408.90625 1006.585938 Z M 408.90625 1006.585938 " fill-opacity="1" fill-rule="evenodd"/></g><path fill="#000000" d="M 555.808594 515.421875 C 555.003906 514.617188 554.144531 513.882812 553.226562 513.210938 C 552.308594 512.542969 551.34375 511.949219 550.332031 511.429688 C 549.320312 510.914062 548.277344 510.476562 547.195312 510.121094 C 546.117188 509.765625 545.015625 509.5 543.894531 509.316406 C 542.773438 509.132812 541.644531 509.039062 540.507812 509.03125 C 539.375 509.027344 538.242188 509.109375 537.121094 509.277344 C 535.996094 509.449219 534.894531 509.707031 533.8125 510.050781 C 532.730469 510.390625 531.679688 510.816406 530.664062 511.324219 L 432.789062 560.261719 C 427.480469 556.96875 422.257812 553.546875 417.121094 549.992188 C 411.988281 546.4375 406.945312 542.753906 401.992188 538.945312 C 397.042969 535.132812 392.195312 531.203125 387.441406 527.148438 C 382.691406 523.09375 378.042969 518.921875 373.503906 514.636719 C 368.960938 510.347656 364.53125 505.945312 360.210938 501.433594 C 355.890625 496.921875 351.6875 492.304688 347.601562 487.582031 C 343.515625 482.859375 339.550781 478.035156 335.707031 473.113281 C 331.863281 468.1875 328.144531 463.171875 324.554688 458.0625 C 320.964844 452.949219 317.503906 447.75 314.175781 442.464844 C 310.847656 437.179688 307.652344 431.816406 304.59375 426.371094 C 301.535156 420.921875 298.617188 415.402344 295.839844 409.808594 C 293.058594 404.21875 290.421875 398.558594 287.925781 392.832031 C 285.429688 387.105469 283.082031 381.320312 280.878906 375.472656 C 278.675781 369.628906 276.621094 363.734375 274.714844 357.785156 C 272.8125 351.835938 271.054688 345.84375 269.453125 339.808594 C 267.847656 333.769531 266.398438 327.699219 265.101562 321.589844 L 338.441406 249.945312 C 339.261719 249.148438 340.011719 248.292969 340.695312 247.378906 C 341.382812 246.464844 341.988281 245.5 342.523438 244.488281 C 343.054688 243.476562 343.503906 242.433594 343.875 241.351562 C 344.242188 240.269531 344.523438 239.164062 344.71875 238.039062 C 344.914062 236.914062 345.019531 235.777344 345.035156 234.636719 C 345.050781 233.492188 344.976562 232.355469 344.8125 231.226562 C 344.652344 230.09375 344.398438 228.984375 344.0625 227.890625 C 343.726562 226.800781 343.304688 225.742188 342.800781 224.714844 L 261.527344 60.035156 C 261.195312 59.363281 260.828125 58.707031 260.429688 58.074219 C 260.03125 57.4375 259.601562 56.824219 259.136719 56.234375 C 258.675781 55.644531 258.183594 55.078125 257.660156 54.539062 C 257.140625 54 256.59375 53.488281 256.019531 53.003906 C 255.445312 52.519531 254.847656 52.070312 254.226562 51.648438 C 253.605469 51.226562 252.964844 50.835938 252.304688 50.480469 C 251.644531 50.125 250.964844 49.804688 250.273438 49.519531 C 249.578125 49.234375 248.871094 48.988281 248.152344 48.773438 C 247.433594 48.5625 246.703125 48.386719 245.964844 48.25 C 245.226562 48.113281 244.484375 48.015625 243.738281 47.953125 C 242.988281 47.894531 242.238281 47.871094 241.488281 47.890625 C 240.738281 47.90625 239.992188 47.960938 239.25 48.054688 C 238.503906 48.152344 237.765625 48.285156 237.035156 48.453125 C 236.304688 48.625 235.585938 48.832031 234.875 49.078125 C 234.167969 49.320312 233.472656 49.601562 232.792969 49.917969 C 232.109375 50.234375 231.449219 50.585938 230.804688 50.972656 L 95.148438 132.375 C 93.535156 133.34375 92.078125 134.503906 90.765625 135.851562 C 89.453125 137.203125 88.335938 138.695312 87.414062 140.332031 C 86.488281 141.972656 85.789062 143.699219 85.3125 145.519531 C 84.835938 147.339844 84.601562 149.1875 84.601562 151.070312 C 84.601562 151.070312 84.167969 627.460938 560.296875 795.539062 C 561.261719 795.878906 562.242188 796.148438 563.246094 796.351562 C 564.25 796.554688 565.261719 796.683594 566.28125 796.742188 C 567.304688 796.800781 568.324219 796.789062 569.34375 796.707031 C 570.363281 796.621094 571.371094 796.464844 572.367188 796.238281 C 573.367188 796.011719 574.34375 795.71875 575.296875 795.355469 C 576.253906 794.988281 577.179688 794.5625 578.074219 794.066406 C 578.972656 793.574219 579.828125 793.019531 580.644531 792.402344 C 581.460938 791.789062 582.230469 791.117188 582.957031 790.394531 L 691.464844 681.886719 C 691.96875 681.382812 692.445312 680.855469 692.898438 680.304688 C 693.351562 679.75 693.777344 679.179688 694.171875 678.585938 C 694.570312 677.992188 694.933594 677.382812 695.269531 676.753906 C 695.609375 676.121094 695.914062 675.480469 696.183594 674.820312 C 696.457031 674.160156 696.699219 673.488281 696.90625 672.808594 C 697.113281 672.125 697.285156 671.433594 697.425781 670.734375 C 697.5625 670.03125 697.667969 669.328125 697.738281 668.617188 C 697.808594 667.90625 697.84375 667.195312 697.84375 666.484375 C 697.84375 665.769531 697.808594 665.058594 697.738281 664.347656 C 697.667969 663.636719 697.5625 662.933594 697.425781 662.234375 C 697.285156 661.535156 697.113281 660.84375 696.90625 660.160156 C 696.699219 659.476562 696.457031 658.804688 696.183594 658.144531 C 695.914062 657.488281 695.609375 656.84375 695.269531 656.214844 C 694.933594 655.585938 694.570312 654.972656 694.171875 654.378906 C 693.777344 653.785156 693.351562 653.214844 692.898438 652.664062 C 692.445312 652.109375 691.96875 651.582031 691.464844 651.078125 Z M 561.949219 749.78125 C 554.402344 747 546.910156 744.078125 539.46875 741.023438 C 532.027344 737.96875 524.644531 734.78125 517.320312 731.457031 C 509.996094 728.132812 502.734375 724.679688 495.535156 721.089844 C 488.335938 717.503906 481.203125 713.785156 474.136719 709.941406 C 467.074219 706.09375 460.082031 702.121094 453.160156 698.019531 C 446.242188 693.917969 439.398438 689.695312 432.632812 685.34375 C 425.863281 680.996094 419.179688 676.527344 412.574219 671.933594 C 405.972656 667.34375 399.453125 662.632812 393.019531 657.800781 C 386.585938 652.972656 380.242188 648.03125 373.988281 642.96875 C 367.738281 637.910156 361.578125 632.738281 355.511719 627.457031 C 349.445312 622.175781 343.480469 616.78125 337.609375 611.28125 C 331.738281 605.78125 325.972656 600.179688 320.304688 594.46875 C 314.640625 588.757812 309.078125 582.949219 303.625 577.035156 C 298.167969 571.125 292.824219 565.117188 287.585938 559.011719 C 282.351562 552.90625 277.226562 546.707031 272.214844 540.414062 C 267.203125 534.125 262.308594 527.742188 257.53125 521.273438 C 252.75 514.804688 248.089844 508.25 243.546875 501.609375 C 239.007812 494.96875 234.585938 488.25 230.289062 481.453125 C 225.992188 474.652344 221.820312 467.777344 217.773438 460.824219 C 213.726562 453.875 209.804688 446.851562 206.015625 439.757812 C 202.222656 432.664062 198.558594 425.503906 195.027344 418.277344 C 191.496094 411.050781 188.09375 403.761719 184.828125 396.410156 C 181.5625 389.0625 178.429688 381.65625 175.429688 374.191406 C 172.429688 366.726562 169.570312 359.210938 166.84375 351.644531 C 164.121094 344.074219 161.53125 336.460938 159.085938 328.796875 C 156.636719 321.136719 154.328125 313.433594 152.160156 305.6875 C 149.992188 297.941406 147.964844 290.15625 146.078125 282.335938 C 144.191406 274.519531 142.449219 266.667969 140.847656 258.785156 C 139.246094 250.902344 137.789062 242.992188 136.476562 235.054688 C 135.164062 227.121094 133.996094 219.164062 132.972656 211.183594 C 131.949219 203.207031 131.070312 195.210938 130.335938 187.203125 C 129.601562 179.191406 129.015625 171.171875 128.570312 163.140625 L 233.160156 100.519531 L 297.085938 229.8125 L 227.015625 298.230469 C 225.792969 299.421875 224.730469 300.738281 223.820312 302.175781 C 222.910156 303.617188 222.175781 305.144531 221.625 306.753906 C 221.070312 308.367188 220.714844 310.023438 220.550781 311.71875 C 220.382812 313.414062 220.417969 315.105469 220.652344 316.792969 C 222 324.21875 223.542969 331.597656 225.289062 338.9375 C 227.035156 346.277344 228.976562 353.566406 231.113281 360.800781 C 233.25 368.035156 235.578125 375.210938 238.101562 382.320312 C 240.625 389.429688 243.339844 396.464844 246.242188 403.429688 C 249.144531 410.394531 252.230469 417.273438 255.503906 424.070312 C 258.777344 430.867188 262.230469 437.574219 265.863281 444.183594 C 269.496094 450.796875 273.304688 457.304688 277.289062 463.710938 C 281.273438 470.117188 285.429688 476.414062 289.75 482.59375 C 294.074219 488.777344 298.5625 494.839844 303.210938 500.78125 C 307.859375 506.722656 312.667969 512.535156 317.628906 518.214844 C 322.59375 523.898438 327.703125 529.445312 332.964844 534.851562 C 338.226562 540.257812 343.628906 545.519531 349.171875 550.636719 C 354.71875 555.75 360.394531 560.714844 366.207031 565.523438 C 372.019531 570.335938 377.957031 574.984375 384.019531 579.476562 C 390.082031 583.96875 396.261719 588.292969 402.554688 592.449219 C 408.851562 596.609375 415.253906 600.59375 421.761719 604.40625 C 423.300781 605.238281 424.914062 605.878906 426.605469 606.324219 C 428.296875 606.765625 430.015625 607.003906 431.765625 607.035156 C 433.511719 607.066406 435.238281 606.886719 436.945312 606.503906 C 438.652344 606.117188 440.285156 605.535156 441.851562 604.753906 L 536.328125 557.515625 L 645.273438 666.460938 Z M 561.949219 749.78125 " fill-opacity="1" fill-rule="evenodd"/><path fill="#000000" d="M 420.757812 314.441406 C 421.863281 314.441406 422.964844 314.46875 424.066406 314.523438 C 425.167969 314.578125 426.269531 314.65625 427.367188 314.765625 C 428.464844 314.875 429.558594 315.007812 430.652344 315.171875 C 431.742188 315.332031 432.828125 315.519531 433.910156 315.738281 C 434.992188 315.953125 436.070312 316.195312 437.140625 316.460938 C 438.210938 316.730469 439.273438 317.023438 440.328125 317.34375 C 441.386719 317.664062 442.433594 318.011719 443.472656 318.382812 C 444.507812 318.753906 445.539062 319.152344 446.558594 319.574219 C 447.578125 319.996094 448.585938 320.441406 449.582031 320.914062 C 450.582031 321.386719 451.566406 321.882812 452.539062 322.402344 C 453.511719 322.921875 454.472656 323.464844 455.417969 324.03125 C 456.363281 324.601562 457.296875 325.191406 458.214844 325.800781 C 459.128906 326.414062 460.03125 327.050781 460.917969 327.707031 C 461.804688 328.363281 462.675781 329.042969 463.527344 329.742188 C 464.378906 330.445312 465.214844 331.164062 466.03125 331.90625 C 466.851562 332.644531 467.648438 333.40625 468.429688 334.1875 C 469.210938 334.964844 469.96875 335.765625 470.710938 336.582031 C 471.453125 337.402344 472.171875 338.234375 472.871094 339.089844 C 473.570312 339.941406 474.25 340.8125 474.90625 341.695312 C 475.566406 342.582031 476.199219 343.484375 476.8125 344.402344 C 477.425781 345.320312 478.015625 346.25 478.582031 347.199219 C 479.148438 348.144531 479.695312 349.105469 480.214844 350.078125 C 480.734375 351.050781 481.230469 352.035156 481.703125 353.03125 C 482.171875 354.03125 482.621094 355.039062 483.042969 356.058594 C 483.464844 357.078125 483.863281 358.105469 484.234375 359.144531 C 484.605469 360.183594 484.949219 361.230469 485.269531 362.285156 C 485.589844 363.34375 485.886719 364.40625 486.152344 365.476562 C 486.421875 366.546875 486.664062 367.621094 486.878906 368.703125 C 487.09375 369.785156 487.28125 370.871094 487.445312 371.964844 C 487.605469 373.054688 487.742188 374.148438 487.851562 375.25 C 487.957031 376.347656 488.039062 377.445312 488.09375 378.546875 C 488.148438 379.648438 488.175781 380.753906 488.175781 381.855469 C 488.175781 382.570312 488.210938 383.28125 488.277344 383.992188 C 488.347656 384.703125 488.453125 385.40625 488.59375 386.105469 C 488.730469 386.804688 488.90625 387.496094 489.113281 388.179688 C 489.320312 388.863281 489.558594 389.535156 489.832031 390.195312 C 490.105469 390.851562 490.410156 391.496094 490.746094 392.128906 C 491.082031 392.757812 491.449219 393.367188 491.847656 393.960938 C 492.242188 394.554688 492.667969 395.125 493.121094 395.679688 C 493.574219 396.230469 494.050781 396.757812 494.554688 397.261719 C 495.0625 397.765625 495.589844 398.246094 496.140625 398.699219 C 496.691406 399.152344 497.265625 399.574219 497.859375 399.972656 C 498.453125 400.367188 499.0625 400.734375 499.691406 401.070312 C 500.320312 401.410156 500.964844 401.714844 501.625 401.984375 C 502.285156 402.257812 502.957031 402.5 503.636719 402.707031 C 504.320312 402.914062 505.011719 403.085938 505.710938 403.226562 C 506.414062 403.367188 507.117188 403.46875 507.828125 403.539062 C 508.539062 403.609375 509.25 403.644531 509.964844 403.644531 C 510.675781 403.644531 511.390625 403.609375 512.097656 403.539062 C 512.808594 403.46875 513.515625 403.367188 514.214844 403.226562 C 514.914062 403.085938 515.605469 402.914062 516.289062 402.707031 C 516.972656 402.5 517.640625 402.257812 518.300781 401.984375 C 518.960938 401.714844 519.605469 401.410156 520.234375 401.070312 C 520.863281 400.734375 521.476562 400.367188 522.066406 399.972656 C 522.660156 399.574219 523.234375 399.152344 523.785156 398.699219 C 524.335938 398.246094 524.867188 397.765625 525.371094 397.261719 C 525.875 396.757812 526.351562 396.230469 526.804688 395.679688 C 527.257812 395.125 527.683594 394.554688 528.078125 393.960938 C 528.476562 393.367188 528.84375 392.757812 529.179688 392.128906 C 529.515625 391.496094 529.820312 390.851562 530.09375 390.195312 C 530.367188 389.535156 530.605469 388.863281 530.8125 388.179688 C 531.019531 387.496094 531.195312 386.804688 531.332031 386.105469 C 531.472656 385.40625 531.578125 384.703125 531.648438 383.992188 C 531.71875 383.28125 531.75 382.570312 531.75 381.855469 C 531.75 380.039062 531.707031 378.222656 531.617188 376.410156 C 531.527344 374.597656 531.390625 372.785156 531.214844 370.976562 C 531.035156 369.171875 530.8125 367.367188 530.542969 365.570312 C 530.277344 363.777344 529.96875 361.988281 529.613281 360.207031 C 529.257812 358.425781 528.859375 356.652344 528.417969 354.890625 C 527.976562 353.128906 527.492188 351.378906 526.960938 349.640625 C 526.433594 347.902344 525.863281 346.179688 525.253906 344.46875 C 524.640625 342.757812 523.988281 341.066406 523.292969 339.386719 C 522.597656 337.710938 521.859375 336.050781 521.082031 334.410156 C 520.304688 332.765625 519.488281 331.144531 518.632812 329.542969 C 517.777344 327.941406 516.882812 326.363281 515.949219 324.804688 C 515.011719 323.246094 514.042969 321.710938 513.03125 320.203125 C 512.023438 318.691406 510.976562 317.207031 509.894531 315.75 C 508.8125 314.289062 507.695312 312.859375 506.542969 311.453125 C 505.390625 310.050781 504.207031 308.675781 502.984375 307.332031 C 501.765625 305.984375 500.515625 304.667969 499.230469 303.386719 C 497.945312 302.101562 496.628906 300.847656 495.285156 299.628906 C 493.9375 298.410156 492.566406 297.222656 491.160156 296.070312 C 489.757812 294.917969 488.324219 293.800781 486.867188 292.71875 C 485.40625 291.636719 483.921875 290.59375 482.414062 289.582031 C 480.902344 288.574219 479.371094 287.601562 477.8125 286.667969 C 476.253906 285.734375 474.675781 284.839844 473.074219 283.980469 C 471.46875 283.125 469.847656 282.308594 468.207031 281.53125 C 466.566406 280.753906 464.90625 280.019531 463.226562 279.324219 C 461.550781 278.628906 459.855469 277.976562 458.144531 277.363281 C 456.4375 276.75 454.710938 276.179688 452.972656 275.652344 C 451.234375 275.125 449.488281 274.640625 447.726562 274.199219 C 445.964844 273.757812 444.191406 273.359375 442.410156 273.003906 C 440.628906 272.648438 438.839844 272.335938 437.042969 272.070312 C 435.246094 271.804688 433.445312 271.582031 431.636719 271.402344 C 429.828125 271.222656 428.019531 271.089844 426.207031 271 C 424.390625 270.910156 422.574219 270.863281 420.757812 270.863281 C 420.046875 270.863281 419.335938 270.898438 418.625 270.96875 C 417.914062 271.039062 417.207031 271.144531 416.507812 271.28125 C 415.808594 271.421875 415.117188 271.59375 414.433594 271.800781 C 413.75 272.007812 413.082031 272.25 412.421875 272.523438 C 411.761719 272.796875 411.117188 273.101562 410.488281 273.4375 C 409.859375 273.773438 409.246094 274.140625 408.65625 274.535156 C 408.0625 274.933594 407.488281 275.355469 406.9375 275.808594 C 406.386719 276.261719 405.855469 276.742188 405.351562 277.246094 C 404.847656 277.75 404.371094 278.277344 403.917969 278.828125 C 403.464844 279.382812 403.039062 279.953125 402.644531 280.546875 C 402.246094 281.140625 401.878906 281.753906 401.542969 282.382812 C 401.207031 283.011719 400.902344 283.65625 400.628906 284.3125 C 400.355469 284.972656 400.117188 285.644531 399.910156 286.328125 C 399.703125 287.011719 399.527344 287.703125 399.390625 288.402344 C 399.25 289.101562 399.144531 289.808594 399.074219 290.515625 C 399.007812 291.226562 398.972656 291.9375 398.972656 292.652344 C 398.972656 293.367188 399.007812 294.078125 399.074219 294.789062 C 399.144531 295.5 399.25 296.203125 399.390625 296.902344 C 399.527344 297.601562 399.703125 298.292969 399.910156 298.976562 C 400.117188 299.660156 400.355469 300.332031 400.628906 300.992188 C 400.902344 301.648438 401.207031 302.292969 401.542969 302.921875 C 401.878906 303.554688 402.246094 304.164062 402.644531 304.757812 C 403.039062 305.351562 403.464844 305.921875 403.917969 306.476562 C 404.371094 307.027344 404.847656 307.554688 405.351562 308.058594 C 405.855469 308.5625 406.386719 309.042969 406.9375 309.496094 C 407.488281 309.949219 408.0625 310.371094 408.65625 310.769531 C 409.246094 311.164062 409.859375 311.53125 410.488281 311.867188 C 411.117188 312.203125 411.761719 312.507812 412.421875 312.78125 C 413.082031 313.054688 413.75 313.296875 414.433594 313.503906 C 415.117188 313.710938 415.808594 313.882812 416.507812 314.023438 C 417.207031 314.160156 417.914062 314.265625 418.625 314.335938 C 419.335938 314.40625 420.046875 314.441406 420.757812 314.441406 Z M 420.757812 314.441406 " fill-opacity="1" fill-rule="evenodd"/><path fill="#000000" d="M 465.558594 225.238281 C 467.390625 225.238281 469.222656 225.285156 471.050781 225.378906 C 472.882812 225.46875 474.707031 225.605469 476.53125 225.785156 C 478.355469 225.964844 480.171875 226.191406 481.984375 226.460938 C 483.796875 226.730469 485.601562 227.046875 487.402344 227.40625 C 489.199219 227.761719 490.984375 228.164062 492.761719 228.613281 C 494.539062 229.058594 496.304688 229.546875 498.058594 230.078125 C 499.8125 230.613281 501.550781 231.1875 503.277344 231.804688 C 505 232.425781 506.710938 233.085938 508.402344 233.785156 C 510.09375 234.488281 511.769531 235.230469 513.425781 236.015625 C 515.082031 236.800781 516.71875 237.625 518.335938 238.488281 C 519.949219 239.351562 521.542969 240.253906 523.113281 241.199219 C 524.6875 242.140625 526.234375 243.121094 527.757812 244.140625 C 529.28125 245.15625 530.777344 246.210938 532.25 247.304688 C 533.722656 248.394531 535.167969 249.523438 536.582031 250.6875 C 538 251.847656 539.386719 253.046875 540.742188 254.277344 C 542.101562 255.507812 543.429688 256.769531 544.722656 258.066406 C 546.019531 259.363281 547.28125 260.6875 548.515625 262.046875 C 549.746094 263.402344 550.941406 264.789062 552.105469 266.207031 C 553.265625 267.625 554.394531 269.066406 555.484375 270.539062 C 556.578125 272.011719 557.632812 273.507812 558.652344 275.03125 C 559.667969 276.554688 560.648438 278.101562 561.59375 279.675781 C 562.535156 281.246094 563.4375 282.839844 564.300781 284.457031 C 565.167969 286.070312 565.992188 287.707031 566.773438 289.363281 C 567.558594 291.019531 568.300781 292.695312 569.003906 294.386719 C 569.707031 296.082031 570.367188 297.789062 570.984375 299.515625 C 571.601562 301.238281 572.175781 302.980469 572.710938 304.730469 C 573.242188 306.484375 573.730469 308.25 574.179688 310.027344 C 574.625 311.804688 575.027344 313.59375 575.386719 315.390625 C 575.742188 317.1875 576.058594 318.992188 576.328125 320.804688 C 576.597656 322.617188 576.824219 324.433594 577.003906 326.257812 C 577.183594 328.082031 577.320312 329.90625 577.414062 331.738281 C 577.503906 333.570312 577.550781 335.398438 577.550781 337.234375 C 577.550781 337.945312 577.585938 338.65625 577.65625 339.367188 C 577.726562 340.078125 577.832031 340.785156 577.96875 341.484375 C 578.109375 342.183594 578.28125 342.875 578.488281 343.558594 C 578.695312 344.242188 578.9375 344.910156 579.210938 345.570312 C 579.484375 346.230469 579.789062 346.875 580.125 347.503906 C 580.460938 348.132812 580.828125 348.746094 581.222656 349.335938 C 581.621094 349.929688 582.042969 350.503906 582.496094 351.054688 C 582.949219 351.605469 583.429688 352.136719 583.933594 352.640625 C 584.4375 353.144531 584.964844 353.621094 585.519531 354.074219 C 586.070312 354.527344 586.640625 354.953125 587.234375 355.347656 C 587.828125 355.746094 588.441406 356.113281 589.070312 356.449219 C 589.699219 356.785156 590.34375 357.089844 591.003906 357.363281 C 591.660156 357.636719 592.332031 357.875 593.015625 358.082031 C 593.699219 358.289062 594.390625 358.464844 595.089844 358.601562 C 595.789062 358.742188 596.496094 358.847656 597.203125 358.917969 C 597.914062 358.984375 598.628906 359.019531 599.339844 359.019531 C 600.054688 359.019531 600.765625 358.984375 601.476562 358.917969 C 602.1875 358.847656 602.890625 358.742188 603.589844 358.601562 C 604.292969 358.464844 604.984375 358.289062 605.664062 358.082031 C 606.347656 357.875 607.019531 357.636719 607.679688 357.363281 C 608.339844 357.089844 608.980469 356.785156 609.613281 356.449219 C 610.242188 356.113281 610.851562 355.746094 611.445312 355.347656 C 612.039062 354.953125 612.613281 354.527344 613.164062 354.074219 C 613.714844 353.621094 614.242188 353.144531 614.746094 352.640625 C 615.253906 352.136719 615.730469 351.605469 616.183594 351.054688 C 616.636719 350.503906 617.0625 349.929688 617.457031 349.335938 C 617.855469 348.746094 618.21875 348.132812 618.554688 347.503906 C 618.894531 346.875 619.199219 346.230469 619.472656 345.570312 C 619.742188 344.910156 619.984375 344.242188 620.191406 343.558594 C 620.398438 342.875 620.570312 342.183594 620.710938 341.484375 C 620.851562 340.785156 620.953125 340.078125 621.023438 339.367188 C 621.09375 338.65625 621.128906 337.945312 621.128906 337.234375 C 621.128906 334.6875 621.0625 332.144531 620.9375 329.601562 C 620.8125 327.058594 620.625 324.519531 620.371094 321.988281 C 620.121094 319.453125 619.808594 316.925781 619.433594 314.410156 C 619.058594 311.890625 618.625 309.382812 618.125 306.886719 C 617.628906 304.390625 617.070312 301.910156 616.449219 299.4375 C 615.832031 296.96875 615.152344 294.519531 614.410156 292.082031 C 613.671875 289.644531 612.871094 287.230469 612.015625 284.832031 C 611.15625 282.4375 610.238281 280.0625 609.265625 277.710938 C 608.289062 275.359375 607.257812 273.035156 606.167969 270.730469 C 605.078125 268.429688 603.933594 266.160156 602.734375 263.914062 C 601.535156 261.667969 600.277344 259.453125 598.96875 257.273438 C 597.660156 255.089844 596.296875 252.9375 594.882812 250.820312 C 593.46875 248.707031 592.003906 246.625 590.488281 244.582031 C 588.96875 242.535156 587.40625 240.53125 585.789062 238.5625 C 584.175781 236.59375 582.511719 234.667969 580.800781 232.78125 C 579.09375 230.894531 577.339844 229.050781 575.539062 227.25 C 573.738281 225.453125 571.894531 223.695312 570.007812 221.988281 C 568.121094 220.277344 566.195312 218.617188 564.226562 217 C 562.261719 215.386719 560.253906 213.820312 558.210938 212.300781 C 556.164062 210.785156 554.085938 209.320312 551.96875 207.90625 C 549.851562 206.492188 547.703125 205.128906 545.519531 203.820312 C 543.335938 202.511719 541.121094 201.257812 538.875 200.054688 C 536.632812 198.855469 534.359375 197.710938 532.058594 196.621094 C 529.757812 195.53125 527.429688 194.5 525.078125 193.527344 C 522.726562 192.550781 520.351562 191.632812 517.957031 190.777344 C 515.558594 189.917969 513.144531 189.117188 510.707031 188.378906 C 508.273438 187.640625 505.820312 186.960938 503.351562 186.339844 C 500.882812 185.71875 498.398438 185.160156 495.902344 184.664062 C 493.40625 184.167969 490.898438 183.730469 488.378906 183.355469 C 485.863281 182.980469 483.335938 182.667969 480.804688 182.417969 C 478.269531 182.167969 475.730469 181.976562 473.191406 181.851562 C 470.648438 181.726562 468.101562 181.660156 465.558594 181.660156 C 464.84375 181.660156 464.132812 181.695312 463.421875 181.765625 C 462.710938 181.835938 462.007812 181.941406 461.304688 182.078125 C 460.605469 182.21875 459.914062 182.390625 459.234375 182.597656 C 458.550781 182.804688 457.878906 183.046875 457.21875 183.320312 C 456.558594 183.59375 455.914062 183.898438 455.285156 184.234375 C 454.65625 184.570312 454.046875 184.9375 453.453125 185.332031 C 452.859375 185.730469 452.285156 186.152344 451.734375 186.605469 C 451.183594 187.058594 450.65625 187.539062 450.148438 188.042969 C 449.644531 188.546875 449.167969 189.074219 448.714844 189.625 C 448.261719 190.179688 447.835938 190.75 447.441406 191.34375 C 447.042969 191.9375 446.679688 192.546875 446.339844 193.179688 C 446.003906 193.808594 445.699219 194.453125 445.425781 195.109375 C 445.152344 195.769531 444.914062 196.441406 444.707031 197.125 C 444.5 197.808594 444.328125 198.5 444.1875 199.199219 C 444.046875 199.898438 443.945312 200.601562 443.875 201.3125 C 443.804688 202.023438 443.769531 202.734375 443.769531 203.449219 C 443.769531 204.164062 443.804688 204.875 443.875 205.585938 C 443.945312 206.296875 444.046875 207 444.1875 207.699219 C 444.328125 208.398438 444.5 209.089844 444.707031 209.773438 C 444.914062 210.457031 445.152344 211.128906 445.425781 211.789062 C 445.699219 212.445312 446.003906 213.089844 446.339844 213.71875 C 446.679688 214.351562 447.042969 214.960938 447.441406 215.554688 C 447.835938 216.148438 448.261719 216.71875 448.714844 217.273438 C 449.167969 217.824219 449.644531 218.351562 450.148438 218.855469 C 450.65625 219.359375 451.183594 219.839844 451.734375 220.292969 C 452.285156 220.746094 452.859375 221.167969 453.453125 221.566406 C 454.046875 221.960938 454.65625 222.328125 455.285156 222.664062 C 455.914062 223 456.558594 223.304688 457.21875 223.578125 C 457.878906 223.851562 458.550781 224.09375 459.234375 224.300781 C 459.914062 224.507812 460.605469 224.679688 461.304688 224.820312 C 462.007812 224.957031 462.710938 225.0625 463.421875 225.132812 C 464.132812 225.203125 464.84375 225.238281 465.558594 225.238281 Z M 465.558594 225.238281 " fill-opacity="1" fill-rule="evenodd"/><path fill="#000000" d="M 509.964844 92.457031 C 509.25 92.457031 508.539062 92.492188 507.828125 92.5625 C 507.117188 92.632812 506.414062 92.738281 505.710938 92.875 C 505.011719 93.015625 504.320312 93.1875 503.636719 93.394531 C 502.957031 93.601562 502.285156 93.84375 501.625 94.117188 C 500.964844 94.390625 500.320312 94.695312 499.691406 95.03125 C 499.0625 95.367188 498.453125 95.734375 497.859375 96.128906 C 497.265625 96.527344 496.691406 96.949219 496.140625 97.402344 C 495.589844 97.855469 495.0625 98.335938 494.554688 98.839844 C 494.050781 99.34375 493.574219 99.871094 493.121094 100.421875 C 492.667969 100.976562 492.242188 101.546875 491.847656 102.140625 C 491.449219 102.734375 491.082031 103.34375 490.746094 103.976562 C 490.410156 104.605469 490.105469 105.25 489.832031 105.90625 C 489.558594 106.566406 489.320312 107.238281 489.113281 107.921875 C 488.90625 108.605469 488.730469 109.296875 488.59375 109.996094 C 488.453125 110.695312 488.347656 111.398438 488.277344 112.109375 C 488.210938 112.820312 488.175781 113.53125 488.175781 114.246094 C 488.175781 114.960938 488.210938 115.671875 488.277344 116.382812 C 488.347656 117.09375 488.453125 117.796875 488.59375 118.496094 C 488.730469 119.195312 488.90625 119.886719 489.113281 120.570312 C 489.320312 121.253906 489.558594 121.925781 489.832031 122.585938 C 490.105469 123.242188 490.410156 123.886719 490.746094 124.515625 C 491.082031 125.144531 491.449219 125.757812 491.847656 126.351562 C 492.242188 126.945312 492.667969 127.515625 493.121094 128.070312 C 493.574219 128.621094 494.050781 129.148438 494.554688 129.652344 C 495.0625 130.15625 495.589844 130.636719 496.140625 131.089844 C 496.691406 131.542969 497.265625 131.964844 497.859375 132.363281 C 498.453125 132.757812 499.0625 133.125 499.691406 133.460938 C 500.320312 133.796875 500.964844 134.101562 501.625 134.375 C 502.285156 134.648438 502.957031 134.890625 503.636719 135.097656 C 504.320312 135.304688 505.011719 135.476562 505.710938 135.617188 C 506.414062 135.753906 507.117188 135.859375 507.828125 135.929688 C 508.539062 136 509.25 136.035156 509.964844 136.035156 C 512.523438 136.039062 515.085938 136.105469 517.644531 136.234375 C 520.203125 136.367188 522.757812 136.558594 525.304688 136.8125 C 527.855469 137.066406 530.398438 137.382812 532.929688 137.765625 C 535.464844 138.144531 537.988281 138.585938 540.5 139.085938 C 543.011719 139.589844 545.511719 140.15625 547.996094 140.78125 C 550.480469 141.40625 552.945312 142.089844 555.398438 142.835938 C 557.847656 143.582031 560.28125 144.390625 562.691406 145.253906 C 565.101562 146.121094 567.492188 147.042969 569.859375 148.027344 C 572.222656 149.007812 574.5625 150.046875 576.878906 151.144531 C 579.195312 152.242188 581.480469 153.394531 583.742188 154.605469 C 586 155.8125 588.226562 157.078125 590.421875 158.394531 C 592.621094 159.714844 594.785156 161.085938 596.914062 162.507812 C 599.042969 163.933594 601.136719 165.410156 603.195312 166.9375 C 605.25 168.464844 607.269531 170.039062 609.25 171.664062 C 611.230469 173.289062 613.167969 174.964844 615.066406 176.683594 C 616.964844 178.40625 618.820312 180.171875 620.632812 181.984375 C 622.445312 183.796875 624.210938 185.648438 625.929688 187.546875 C 627.652344 189.445312 629.324219 191.386719 630.949219 193.367188 C 632.574219 195.34375 634.152344 197.363281 635.679688 199.421875 C 637.207031 201.480469 638.679688 203.574219 640.105469 205.703125 C 641.53125 207.832031 642.902344 209.996094 644.21875 212.191406 C 645.539062 214.386719 646.800781 216.617188 648.011719 218.875 C 649.21875 221.132812 650.371094 223.421875 651.46875 225.734375 C 652.566406 228.050781 653.605469 230.390625 654.589844 232.757812 C 655.570312 235.125 656.496094 237.511719 657.359375 239.925781 C 658.226562 242.335938 659.03125 244.765625 659.777344 247.21875 C 660.523438 249.667969 661.210938 252.136719 661.835938 254.621094 C 662.460938 257.105469 663.027344 259.605469 663.527344 262.117188 C 664.03125 264.628906 664.472656 267.152344 664.851562 269.683594 C 665.230469 272.21875 665.546875 274.761719 665.804688 277.308594 C 666.058594 279.859375 666.25 282.414062 666.378906 284.972656 C 666.507812 287.53125 666.578125 290.089844 666.582031 292.652344 C 666.582031 293.367188 666.617188 294.078125 666.6875 294.789062 C 666.753906 295.5 666.859375 296.203125 667 296.902344 C 667.136719 297.601562 667.3125 298.292969 667.519531 298.976562 C 667.726562 299.660156 667.964844 300.332031 668.238281 300.992188 C 668.511719 301.648438 668.816406 302.292969 669.152344 302.921875 C 669.488281 303.554688 669.855469 304.164062 670.253906 304.757812 C 670.648438 305.351562 671.074219 305.921875 671.527344 306.476562 C 671.980469 307.027344 672.457031 307.554688 672.960938 308.058594 C 673.46875 308.5625 673.996094 309.042969 674.546875 309.496094 C 675.097656 309.949219 675.671875 310.371094 676.265625 310.769531 C 676.859375 311.164062 677.46875 311.53125 678.097656 311.867188 C 678.726562 312.203125 679.371094 312.507812 680.03125 312.78125 C 680.691406 313.054688 681.363281 313.296875 682.042969 313.503906 C 682.726562 313.710938 683.417969 313.882812 684.117188 314.023438 C 684.820312 314.160156 685.523438 314.265625 686.234375 314.335938 C 686.945312 314.40625 687.65625 314.441406 688.371094 314.441406 C 689.082031 314.441406 689.796875 314.40625 690.503906 314.335938 C 691.214844 314.265625 691.921875 314.160156 692.621094 314.023438 C 693.320312 313.882812 694.011719 313.710938 694.695312 313.503906 C 695.378906 313.296875 696.046875 313.054688 696.707031 312.78125 C 697.367188 312.507812 698.011719 312.203125 698.640625 311.867188 C 699.269531 311.53125 699.882812 311.164062 700.476562 310.769531 C 701.066406 310.371094 701.640625 309.949219 702.191406 309.496094 C 702.742188 309.042969 703.273438 308.5625 703.777344 308.058594 C 704.28125 307.554688 704.761719 307.027344 705.210938 306.476562 C 705.664062 305.921875 706.089844 305.351562 706.484375 304.757812 C 706.882812 304.164062 707.25 303.554688 707.585938 302.921875 C 707.921875 302.292969 708.226562 301.648438 708.5 300.992188 C 708.773438 300.332031 709.011719 299.660156 709.21875 298.976562 C 709.425781 298.292969 709.601562 297.601562 709.738281 296.902344 C 709.878906 296.203125 709.984375 295.5 710.054688 294.789062 C 710.125 294.078125 710.160156 293.367188 710.160156 292.652344 C 710.152344 289.378906 710.070312 286.105469 709.90625 282.832031 C 709.742188 279.5625 709.496094 276.296875 709.171875 273.039062 C 708.847656 269.777344 708.441406 266.53125 707.957031 263.289062 C 707.472656 260.050781 706.910156 256.828125 706.269531 253.613281 C 705.625 250.402344 704.90625 247.207031 704.109375 244.03125 C 703.308594 240.855469 702.433594 237.703125 701.480469 234.566406 C 700.527344 231.433594 699.496094 228.328125 698.390625 225.242188 C 697.285156 222.160156 696.105469 219.105469 694.851562 216.082031 C 693.59375 213.054688 692.265625 210.0625 690.863281 207.105469 C 689.460938 204.144531 687.988281 201.21875 686.441406 198.332031 C 684.898438 195.445312 683.28125 192.597656 681.597656 189.789062 C 679.914062 186.980469 678.160156 184.214844 676.339844 181.492188 C 674.519531 178.769531 672.632812 176.09375 670.679688 173.460938 C 668.730469 170.832031 666.714844 168.25 664.636719 165.71875 C 662.558594 163.1875 660.417969 160.710938 658.21875 158.28125 C 656.019531 155.855469 653.761719 153.484375 651.445312 151.167969 C 649.128906 148.855469 646.757812 146.597656 644.332031 144.394531 C 641.90625 142.195312 639.425781 140.058594 636.894531 137.980469 C 634.363281 135.902344 631.785156 133.886719 629.152344 131.933594 C 626.523438 129.984375 623.847656 128.097656 621.125 126.277344 C 618.402344 124.457031 615.636719 122.703125 612.828125 121.019531 C 610.019531 119.332031 607.171875 117.71875 604.28125 116.171875 C 601.394531 114.628906 598.472656 113.152344 595.511719 111.75 C 592.550781 110.351562 589.558594 109.019531 586.535156 107.765625 C 583.507812 106.511719 580.453125 105.328125 577.371094 104.222656 C 574.289062 103.117188 571.179688 102.089844 568.046875 101.136719 C 564.914062 100.183594 561.757812 99.308594 558.582031 98.507812 C 555.40625 97.710938 552.210938 96.988281 549 96.347656 C 545.789062 95.703125 542.5625 95.140625 539.324219 94.65625 C 536.085938 94.175781 532.835938 93.769531 529.578125 93.445312 C 526.316406 93.121094 523.054688 92.875 519.78125 92.710938 C 516.511719 92.546875 513.238281 92.460938 509.964844 92.457031 Z M 509.964844 92.457031 " fill-opacity="1" fill-rule="evenodd"/></svg>